<svg xmlns="http://www.w3.org/2000/svg" viewBox="0 0 64 64">
<path fill-rule="evenodd" d="
M32 6
C40.8366 6 48 13.1634 48 22
C48 27.5209 45.3193 32.4197 41.1875 35.4375
C45.3193 38.4553 48 43.3541 48 48
C48 56.8366 40.8366 64 32 64
C23.1634 64 16 56.8366 16 48
C16 43.3541 18.6807 38.4553 22.8125 35.4375
C18.6807 32.4197 16 27.5209 16 22
C16 13.1634 23.1634 6 32 6
Z
M32 14
C27.5817 14 24 17.5817 24 22
C24 26.4183 27.5817 30 32 30
C36.4183 30 40 26.4183 40 22
C40 17.5817 36.4183 14 32 14
Z
M32 40
C27.5817 40 24 43.5817 24 48
C24 52.4183 27.5817 56 32 56
C36.4183 56 40 52.4183 40 48
C40 43.5817 36.4183 40 32 40
Z"/>
</svg>
